<svg width="32" height="32" viewBox="0 0 32 32" fill="none" xmlns="http://www.w3.org/2000/svg">
<rect width="32" height="32" rx="4" fill="#285ADA"/>
<path fill-rule="evenodd" clip-rule="evenodd" d="M6.28307 8.30145C6.56912 8.00726 7.00587 7.91767 7.38464 8.07549L25.3846 15.5755C25.7573 15.7308 26 16.0949 26 16.4986C26 16.9023 25.7573 17.2664 25.3846 17.4216L7.38464 24.9216C7.00587 25.0795 6.56912 24.9899 6.28307 24.6957C5.99701 24.4015 5.91972 23.9624 6.0881 23.5882L9.27844 16.4986L6.0881 9.40893C5.91972 9.03474 5.99701 8.59565 6.28307 8.30145ZM8.94967 10.8943L11.2869 16.0882C11.4044 16.3492 11.4044 16.648 11.2869 16.9089L8.94967 22.1029L22.4 16.4986L8.94967 10.8943Z" fill="white"/>
<path fill-rule="evenodd" clip-rule="evenodd" d="M9.31616 16.4985C9.31616 15.9463 9.76388 15.4985 10.3162 15.4985H25.0004C25.5527 15.4985 26.0004 15.9463 26.0004 16.4985C26.0004 17.0508 25.5527 17.4985 25.0004 17.4985H10.3162C9.76388 17.4985 9.31616 17.0508 9.31616 16.4985Z" fill="white"/>
</svg>
