<svg width="32" height="32" viewBox="0 0 32 32" fill="none" xmlns="http://www.w3.org/2000/svg">
<rect width="32" height="32" fill="white"/>
<path d="M18 16C18 14.8956 17.1044 14 16 14C14.8956 14 14 14.8956 14 16C14 17.1044 14.8956 18 16 18C17.1044 18 18 17.1044 18 16Z" fill="#A9A9A9"/>
<path d="M25 16C25 14.8956 24.1044 14 23 14C21.8956 14 21 14.8956 21 16C21 17.1044 21.8956 18 23 18C24.1044 18 25 17.1044 25 16Z" fill="#A9A9A9"/>
<path d="M11 16C11 14.8956 10.1046 14 9 14C7.89544 14 7 14.8956 7 16C7 17.1044 7.89544 18 9 18C10.1046 18 11 17.1044 11 16Z" fill="#A9A9A9"/>
</svg>
