<svg width="156" height="90" viewBox="0 0 156 90" fill="none" xmlns="http://www.w3.org/2000/svg">
<path fill-rule="evenodd" clip-rule="evenodd" d="M28.4998 26.9998C28.4998 25.3429 29.7887 23.9998 31.3788 23.9998H51.1207C52.7108 23.9998 53.9998 25.3429 53.9998 26.9998C53.9998 28.6566 52.7108 29.9998 51.1207 29.9998H31.3788C29.7887 29.9998 28.4998 28.6566 28.4998 26.9998Z" fill="#285ADA"/>
<path fill-rule="evenodd" clip-rule="evenodd" d="M28.4998 42.0002C28.4998 40.3434 29.7887 39.0002 31.3788 39.0002H61.6207C63.2108 39.0002 64.4998 40.3434 64.4998 42.0002C64.4998 43.6571 63.2108 45.0002 61.6207 45.0002H31.3788C29.7887 45.0002 28.4998 43.6571 28.4998 42.0002Z" fill="#285ADA"/>
<path fill-rule="evenodd" clip-rule="evenodd" d="M28.4998 57C28.4998 55.3431 29.7887 54 31.3788 54H45.1207C46.7108 54 47.9998 55.3431 47.9998 57C47.9998 58.6569 46.7108 60 45.1207 60H31.3788C29.7887 60 28.4998 58.6569 28.4998 57Z" fill="#285ADA"/>
<path fill-rule="evenodd" clip-rule="evenodd" d="M5.72658 42.1367C5.72658 18.8652 24.5918 0 47.8633 0C71.1346 0 90 18.8652 90 42.1367C90 65.408 71.1346 84.2734 47.8633 84.2734C40.7293 84.2734 34.002 82.4981 28.1071 79.3638L4.11421 89.7573C3.00578 90.2375 1.7165 89.9918 0.862338 89.1377C0.00817466 88.2835 -0.23751 86.9942 0.242661 85.8858L10.6363 61.8929C7.50184 55.9979 5.72658 49.2707 5.72658 42.1367ZM47.8633 5.88785C27.8436 5.88785 11.6144 22.117 11.6144 42.1367C11.6144 48.7439 13.3796 54.9302 16.4621 60.259C16.9291 61.0664 16.9859 62.0474 16.6151 62.9033L8.6043 81.3957L27.0967 73.3849C27.9526 73.0142 28.9335 73.071 29.7409 73.538C35.0697 76.6203 41.2561 78.3856 47.8633 78.3856C67.8828 78.3856 84.1122 62.1562 84.1122 42.1367C84.1122 22.117 67.8828 5.88785 47.8633 5.88785Z" fill="#285ADA"/>
<path fill-rule="evenodd" clip-rule="evenodd" d="M127.5 27C127.5 25.3431 126.211 24 124.621 24H104.879C103.289 24 102 25.3431 102 27C102 28.6569 103.289 30 104.879 30H124.621C126.211 30 127.5 28.6569 127.5 27Z" fill="#FFB359"/>
<path fill-rule="evenodd" clip-rule="evenodd" d="M127.5 42C127.5 40.3431 126.211 39 124.621 39H94.379C92.789 39 91.5 40.3431 91.5 42C91.5 43.6569 92.789 45 94.379 45H124.621C126.211 45 127.5 43.6569 127.5 42Z" fill="#FFB359"/>
<path fill-rule="evenodd" clip-rule="evenodd" d="M127.5 57C127.5 55.3431 126.211 54 124.621 54H110.879C109.289 54 108 55.3431 108 57C108 58.6569 109.289 60 110.879 60H124.621C126.211 60 127.5 58.6569 127.5 57Z" fill="#FFB359"/>
<path fill-rule="evenodd" clip-rule="evenodd" d="M150.273 42.1367C150.273 18.8652 131.408 0 108.137 0C84.8654 0 66 18.8652 66 42.1367C66 65.408 84.8654 84.2734 108.137 84.2734C115.271 84.2734 121.998 82.4981 127.893 79.3638L151.886 89.7573C152.994 90.2375 154.283 89.9918 155.138 89.1377C155.992 88.2835 156.238 86.9942 155.757 85.8858L145.364 61.8929C148.498 55.9979 150.273 49.2707 150.273 42.1367ZM108.137 5.88785C128.156 5.88785 144.386 22.117 144.386 42.1367C144.386 48.7439 142.62 54.9302 139.538 60.259C139.071 61.0664 139.014 62.0474 139.385 62.9033L147.396 81.3957L128.903 73.3849C128.047 73.0142 127.066 73.071 126.259 73.538C120.93 76.6203 114.744 78.3856 108.137 78.3856C88.1172 78.3856 71.8878 62.1562 71.8878 42.1367C71.8878 22.117 88.1172 5.88785 108.137 5.88785Z" fill="#FFB359"/>
</svg>
