<svg width="210" height="120" viewBox="0 0 210 120" fill="none" xmlns="http://www.w3.org/2000/svg">
<path fill-rule="evenodd" clip-rule="evenodd" d="M64.7321 9.01481C90.2723 9.01481 110.977 29.6997 110.977 55.2157C110.977 76.3572 96.763 94.1821 77.3619 99.6726L20.2333 42.5979C25.729 23.2151 43.5707 9.01481 64.7321 9.01481ZM18.5903 52.1117L34.9133 68.4193C34.7772 68.5338 34.6449 68.655 34.5168 68.783L24.7847 78.5059C20.7817 71.6676 18.4876 63.7093 18.4876 55.2157C18.4876 54.1726 18.5222 53.1376 18.5903 52.1117ZM51.6295 85.1197L67.8391 101.314C66.8122 101.382 65.7762 101.417 64.7321 101.417C56.2898 101.417 48.3758 99.1565 41.5633 95.2089L51.2654 85.5159C51.3936 85.3879 51.5149 85.2557 51.6295 85.1197ZM64.7321 110.431C53.786 110.431 43.5832 107.252 34.9982 101.768L18.5656 118.185C16.143 120.605 12.2151 120.605 9.79249 118.185L1.81692 110.217C-0.605721 107.796 -0.605721 103.872 1.81692 101.452L18.2247 85.0597C12.6806 76.4542 9.46423 66.2102 9.46423 55.2157C9.46423 24.7209 34.2085 0 64.7321 0C95.2557 0 120 24.7209 120 55.2157C120 85.7105 95.2557 110.431 64.7321 110.431ZM8.59615 105.834L23.0123 91.4319C24.7413 93.4181 26.61 95.2798 28.6033 97.0014L14.179 111.412L8.59615 105.834ZM35.0039 90.6068C32.9854 88.9127 31.114 87.0494 29.4114 85.0388L38.9033 75.5558L44.4862 81.1335L35.0039 90.6068Z" fill="#285ADA"/>
<path fill-rule="evenodd" clip-rule="evenodd" d="M145.268 9.01481C119.728 9.01481 99.0233 29.6997 99.0233 55.2157C99.0233 76.3572 113.237 94.1821 132.638 99.6726L189.767 42.5979C184.271 23.2151 166.429 9.01481 145.268 9.01481ZM191.41 52.1117L175.087 68.4193C175.223 68.5338 175.355 68.655 175.483 68.783L185.215 78.5059C189.218 71.6676 191.512 63.7093 191.512 55.2157C191.512 54.1726 191.478 53.1376 191.41 52.1117ZM158.371 85.1197L142.161 101.314C143.188 101.382 144.224 101.417 145.268 101.417C153.71 101.417 161.624 99.1565 168.437 95.2089L158.735 85.5159C158.606 85.3879 158.485 85.2557 158.371 85.1197ZM145.268 110.431C156.214 110.431 166.417 107.252 175.002 101.768L191.434 118.185C193.857 120.605 197.785 120.605 200.208 118.185L208.183 110.217C210.606 107.796 210.606 103.872 208.183 101.452L191.775 85.0597C197.319 76.4542 200.536 66.2102 200.536 55.2157C200.536 24.7209 175.791 0 145.268 0C114.744 0 90 24.7209 90 55.2157C90 85.7105 114.744 110.431 145.268 110.431ZM201.404 105.834L186.988 91.4319C185.259 93.4181 183.39 95.2798 181.397 97.0014L195.821 111.412L201.404 105.834ZM174.996 90.6068C177.015 88.9127 178.886 87.0494 180.589 85.0388L171.097 75.5558L165.514 81.1335L174.996 90.6068Z" fill="#FFB359"/>
</svg>
