<svg width="86" height="50" viewBox="0 0 86 50" fill="none" xmlns="http://www.w3.org/2000/svg">
<path fill-rule="evenodd" clip-rule="evenodd" d="M0 25C0 11.1929 11.1929 0 25 0C38.807 0 50 11.1929 50 25C50 38.807 38.807 50 25 50C11.1929 50 0 38.807 0 25ZM25 4.90196C13.9002 4.90196 4.90196 13.9002 4.90196 25C4.90196 36.0997 13.9002 45.098 25 45.098C36.0997 45.098 45.098 36.0997 45.098 25C45.098 13.9002 36.0997 4.90196 25 4.90196Z" fill="#285ADA"/>
<path fill-rule="evenodd" clip-rule="evenodd" d="M9.48883 40.8368C8.65129 41.8883 7.12085 42.0694 6.06056 41.2389C4.99491 40.4042 4.80771 38.8637 5.64242 37.798L7.57194 39.3094C5.64242 37.798 5.64332 37.7969 5.64425 37.7957L5.6462 37.7932L5.65046 37.7878L5.66046 37.7752L5.68632 37.7432C5.70619 37.7188 5.73133 37.6884 5.76181 37.6524C5.82276 37.5805 5.90515 37.4863 6.00959 37.3729C6.21841 37.1463 6.51581 36.8429 6.90679 36.4892C7.68878 35.7818 8.84657 34.8718 10.4191 33.9731C13.5798 32.1666 18.3539 30.4417 25.0001 30.4417C31.6462 30.4417 36.4204 32.1666 39.5812 33.9731C41.1537 34.8718 42.3115 35.7817 43.0935 36.4892C43.4845 36.8429 43.7819 37.1462 43.9907 37.3729C44.0952 37.4862 44.1776 37.5805 44.2385 37.6524C44.269 37.6884 44.2941 37.7187 44.314 37.7431L44.3399 37.7752L44.3499 37.7878L44.3541 37.7932L44.3561 37.7957C44.357 37.7968 44.3579 37.798 42.4284 39.3094L44.3579 37.798C45.1927 38.8636 45.0055 40.4042 43.9398 41.2389C42.8796 42.0694 41.3492 41.8883 40.5116 40.8368C40.5095 40.8343 40.5055 40.8294 40.4994 40.8223C40.4807 40.8002 40.4429 40.7566 40.3857 40.6945C40.2712 40.5702 40.079 40.3723 39.805 40.1244C39.257 39.6287 38.3831 38.9344 37.1488 38.229C34.6959 36.827 30.7559 35.3436 25.0001 35.3436C19.2443 35.3436 15.3044 36.827 12.8515 38.229C11.6172 38.9344 10.7433 39.6287 10.1953 40.1244C9.92133 40.3723 9.72917 40.5702 9.61467 40.6944C9.55745 40.7566 9.51974 40.8001 9.50101 40.8222C9.49499 40.8293 9.49093 40.8342 9.48883 40.8368ZM40.5024 40.8252C40.5021 40.8249 40.5019 40.8245 40.5016 40.8242L40.5023 40.825L40.5024 40.8252Z" fill="#285ADA"/>
<path fill-rule="evenodd" clip-rule="evenodd" d="M15.7854 18.2347C15.7854 13.1451 19.9113 9.01904 25.0011 9.01904C30.0909 9.01904 34.2168 13.1451 34.2168 18.2347C34.2168 23.3245 30.0909 27.4504 25.0011 27.4504C19.9113 27.4504 15.7854 23.3245 15.7854 18.2347ZM25.0011 13.921C22.6186 13.921 20.6874 15.8523 20.6874 18.2347C20.6874 20.6172 22.6186 22.5485 25.0011 22.5485C27.3836 22.5485 29.3148 20.6172 29.3148 18.2347C29.3148 15.8523 27.3836 13.921 25.0011 13.921Z" fill="#285ADA"/>
<path fill-rule="evenodd" clip-rule="evenodd" d="M70.5414 34.5414C71.4985 33.5842 73.0504 33.5842 74.0076 34.5414L85.2821 45.8159C86.2392 46.773 86.2392 48.3249 85.2821 49.2821C84.3249 50.2392 82.773 50.2392 81.8159 49.2821L70.5414 38.0076C69.5842 37.0504 69.5842 35.4985 70.5414 34.5414Z" fill="#FFB359"/>
<path fill-rule="evenodd" clip-rule="evenodd" d="M36 21.7787C36 9.75066 45.7507 0 57.7787 0C69.8067 0 79.5574 9.75065 79.5574 21.7787C79.5574 27.7816 77.1257 33.2213 73.1991 37.1582L71.4862 35.4498L73.1991 37.1582C69.259 41.1087 63.8024 43.5574 57.7787 43.5574C45.7507 43.5574 36 33.8067 36 21.7787ZM57.7787 4.90196C48.4579 4.90196 40.902 12.4579 40.902 21.7787C40.902 31.0995 48.4579 38.6555 57.7787 38.6555C62.4478 38.6555 66.6704 36.7626 69.7283 33.6965L69.7284 33.6964C72.7758 30.6412 74.6555 26.4318 74.6555 21.7787C74.6555 12.4579 67.0995 4.90196 57.7787 4.90196Z" fill="#FFB359"/>
</svg>
